Exact Audio Copy V0.99 prebeta 1 from 25. May 2007

EAC 抓取日志文件从15. 五月 2011, 21:10

群星 / 流行歌坛名人4

使用驱动器  ：PIONEER DVD-RW  DVR-115   Adapter: 0  ID: 0

读取模式     : 保护
使用精确流   : 是
废除音频缓冲 : 是
使用 C2 指针 : 否

读取偏移校正                   : 48
读取 Lead-In 和 Lead-Out       : 否
用静音填充抓取中丢失偏移的采样 : 是
去除首尾静音块                 : 否
已用接口                       : Win NT 及 2000 本地 Win32 接口

所用输出格式 : 内部 WAV 函数
样本格式     : 44.100 Hz;16 Bit;立体声
使用压缩偏移 : 48


被抓轨 CD 的 TOC

     音轨 |   开始   |   长度   | 起始扇区 | 结尾扇区 
    --------------------------------------------------
       1  |  0:00.32 |  4:54.05 |      32  |   22086  
       2  |  4:54.37 |  4:57.00 |   22087  |   44361  
       3  |  9:51.37 |  3:54.35 |   44362  |   61946  
       4  | 13:45.72 |  4:22.68 |   61947  |   81664  
       5  | 18:08.65 |  3:33.72 |   81665  |   97711  
       6  | 21:42.62 |  4:17.53 |   97712  |  117039  
       7  | 26:00.40 |  4:49.15 |  117040  |  138729  
       8  | 30:49.55 |  4:00.55 |  138730  |  156784  
       9  | 34:50.35 |  3:49.05 |  156785  |  173964  
      10  | 38:39.40 |  4:31.02 |  173965  |  194291  
      11  | 43:10.42 |  3:48.65 |  194292  |  211456  
      12  | 46:59.32 |  4:45.00 |  211457  |  232831  
      13  | 51:44.32 |  4:17.33 |  232832  |  252139  
      14  | 56:01.65 |  3:57.22 |  252140  |  269936  


范围状态及错误

已选择范围

     文件名 E:\20世纪中华歌坛名人百集珍藏版-流行歌坛名人4[lwg188原创]\群星 - 流行歌坛名人4.wav

     峰值电平 100.0 %
     范围质量 100.0 %
     复制 CRC 3FC3A949
     复制成功

没有错误发生

状态报告结尾
